<mxfile modified="2024-03-19T21:58:30.531Z" host="app.diagrams.net" agent="Mozilla/5.0 (Windows NT 10.0; Win64; x64) AppleWebKit/537.36 (KHTML, like Gecko) Chrome/122.0.0.0 Safari/537.36" etag="LrTxsz4RnkqdHQCIslM5" version="24.0.7" type="github">
  <diagram id="Ht1M8jgEwFfnCIfOTk4-" name="Page-1">
    <mxGraphModel dx="432" dy="27" grid="1" gridSize="10" guides="1" tooltips="1" connect="1" arrows="1" fold="1" page="1" pageScale="1" pageWidth="1169" pageHeight="827" math="0" shadow="0">
      <root>
        <mxCell id="0" />
        <mxCell id="1" parent="0" />
        <mxCell id="UqFzoPvF-f6WHd70iIKx-3" value="" style="outlineConnect=0;dashed=0;verticalLabelPosition=bottom;verticalAlign=top;align=center;html=1;shape=mxgraph.aws3.dynamo_db;fillColor=#2E73B8;gradientColor=none;" vertex="1" parent="1">
          <mxGeometry x="180" y="1260" width="72" height="81" as="geometry" />
        </mxCell>
        <mxCell id="UqFzoPvF-f6WHd70iIKx-9" value="" style="outlineConnect=0;dashed=0;verticalLabelPosition=bottom;verticalAlign=top;align=center;html=1;shape=mxgraph.aws3.cognito;fillColor=#AD688B;gradientColor=none;" vertex="1" parent="1">
          <mxGeometry x="472" y="1000" width="76.5" height="93" as="geometry" />
        </mxCell>
        <mxCell id="UqFzoPvF-f6WHd70iIKx-10" value="" style="outlineConnect=0;dashed=0;verticalLabelPosition=bottom;verticalAlign=top;align=center;html=1;shape=mxgraph.aws3.s3;fillColor=#E05243;gradientColor=none;" vertex="1" parent="1">
          <mxGeometry x="480" y="1254" width="76.5" height="93" as="geometry" />
        </mxCell>
        <mxCell id="UqFzoPvF-f6WHd70iIKx-34" value="" style="edgeStyle=orthogonalEdgeStyle;rounded=0;orthogonalLoop=1;jettySize=auto;html=1;" edge="1" parent="1" source="UqFzoPvF-f6WHd70iIKx-11" target="UqFzoPvF-f6WHd70iIKx-12">
          <mxGeometry relative="1" as="geometry" />
        </mxCell>
        <mxCell id="UqFzoPvF-f6WHd70iIKx-11" value="Mobile client" style="sketch=0;outlineConnect=0;fontColor=#232F3E;gradientColor=none;strokeColor=#232F3E;fillColor=#ffffff;dashed=0;verticalLabelPosition=bottom;verticalAlign=top;align=center;html=1;fontSize=12;fontStyle=0;aspect=fixed;shape=mxgraph.aws4.resourceIcon;resIcon=mxgraph.aws4.mobile_client;" vertex="1" parent="1">
          <mxGeometry x="334" y="870" width="60" height="60" as="geometry" />
        </mxCell>
        <mxCell id="UqFzoPvF-f6WHd70iIKx-33" style="edgeStyle=orthogonalEdgeStyle;rounded=0;orthogonalLoop=1;jettySize=auto;html=1;exitX=0.65;exitY=0.5;exitDx=0;exitDy=0;exitPerimeter=0;" edge="1" parent="1" source="UqFzoPvF-f6WHd70iIKx-12" target="UqFzoPvF-f6WHd70iIKx-9">
          <mxGeometry relative="1" as="geometry" />
        </mxCell>
        <mxCell id="UqFzoPvF-f6WHd70iIKx-12" value="" style="outlineConnect=0;dashed=0;verticalLabelPosition=bottom;verticalAlign=top;align=center;html=1;shape=mxgraph.aws3.api_gateway;fillColor=#D9A741;gradientColor=none;" vertex="1" parent="1">
          <mxGeometry x="325" y="1000" width="76.5" height="93" as="geometry" />
        </mxCell>
        <mxCell id="UqFzoPvF-f6WHd70iIKx-20" value="" style="sketch=0;points=[[0,0,0],[0.25,0,0],[0.5,0,0],[0.75,0,0],[1,0,0],[0,1,0],[0.25,1,0],[0.5,1,0],[0.75,1,0],[1,1,0],[0,0.25,0],[0,0.5,0],[0,0.75,0],[1,0.25,0],[1,0.5,0],[1,0.75,0]];outlineConnect=0;fontColor=#232F3E;fillColor=#01A88D;strokeColor=#ffffff;dashed=0;verticalLabelPosition=bottom;verticalAlign=top;align=center;html=1;fontSize=12;fontStyle=0;aspect=fixed;shape=mxgraph.aws4.resourceIcon;resIcon=mxgraph.aws4.sagemaker;" vertex="1" parent="1">
          <mxGeometry x="325" y="1360" width="78" height="78" as="geometry" />
        </mxCell>
        <mxCell id="UqFzoPvF-f6WHd70iIKx-21" value="" style="outlineConnect=0;dashed=0;verticalLabelPosition=bottom;verticalAlign=top;align=center;html=1;shape=mxgraph.aws3.lambda;fillColor=#F58534;gradientColor=none;" vertex="1" parent="1">
          <mxGeometry x="325" y="1180" width="76.5" height="93" as="geometry" />
        </mxCell>
        <mxCell id="UqFzoPvF-f6WHd70iIKx-24" value="" style="endArrow=classic;html=1;rounded=0;exitX=1;exitY=0.79;exitDx=0;exitDy=0;exitPerimeter=0;" edge="1" parent="1" source="UqFzoPvF-f6WHd70iIKx-21" target="UqFzoPvF-f6WHd70iIKx-10">
          <mxGeometry width="50" height="50" relative="1" as="geometry">
            <mxPoint x="320" y="1220" as="sourcePoint" />
            <mxPoint x="370" y="1170" as="targetPoint" />
          </mxGeometry>
        </mxCell>
        <mxCell id="UqFzoPvF-f6WHd70iIKx-25" value="" style="endArrow=classic;html=1;rounded=0;" edge="1" parent="1" source="UqFzoPvF-f6WHd70iIKx-21" target="UqFzoPvF-f6WHd70iIKx-3">
          <mxGeometry width="50" height="50" relative="1" as="geometry">
            <mxPoint x="320" y="1220" as="sourcePoint" />
            <mxPoint x="370" y="1170" as="targetPoint" />
          </mxGeometry>
        </mxCell>
        <mxCell id="UqFzoPvF-f6WHd70iIKx-27" value="" style="endArrow=classic;html=1;rounded=0;" edge="1" parent="1" source="UqFzoPvF-f6WHd70iIKx-21" target="UqFzoPvF-f6WHd70iIKx-20">
          <mxGeometry width="50" height="50" relative="1" as="geometry">
            <mxPoint x="320" y="1220" as="sourcePoint" />
            <mxPoint x="370" y="1170" as="targetPoint" />
          </mxGeometry>
        </mxCell>
        <mxCell id="UqFzoPvF-f6WHd70iIKx-29" value="" style="endArrow=classic;html=1;rounded=0;exitX=0.5;exitY=1;exitDx=0;exitDy=0;exitPerimeter=0;entryX=0.5;entryY=0;entryDx=0;entryDy=0;entryPerimeter=0;" edge="1" parent="1" source="UqFzoPvF-f6WHd70iIKx-12" target="UqFzoPvF-f6WHd70iIKx-21">
          <mxGeometry width="50" height="50" relative="1" as="geometry">
            <mxPoint x="440" y="1120" as="sourcePoint" />
            <mxPoint x="380" y="1190" as="targetPoint" />
          </mxGeometry>
        </mxCell>
      </root>
    </mxGraphModel>
  </diagram>
</mxfile>
